# xmcd CD database file
# Copyright (C) 1993-1998 Ti Kan
#
# Track frame offsets:
#  150
#  18560
#  35285
#  47195
#  63660
#  76407
#  89892
#  103082
#  123150
#  136957
#  151550
#  169885
#
# Disc length: 2406 seconds
#
# Revision: 1
# Processed by: cddbd v1.4b41PL1 Copyright (c) Steve Scherf et al.
# Submitted via: CDWizzard Release:4.35
#
DISCID=9c09640c
DTITLE=Roy C - Roy C Collection, Best Of
DYEAR=1900
DGENRE=
TTITLE0=She's Gone 
TTITLE1=After Loving You
TTITLE2=I Found A Man In My Bed
TTITLE3=Leaving On The Morning Train
TTITLE4=Got To Get Enough
TTITLE5=After The Disco Is Over
TTITLE6=If I Can Love You Forever
TTITLE7=I'm Going To Love Someone Else's Woman
TTITLE8=Back Into My Arms Again
TTITLE9=Right Or Wrong
TTITLE10=I'm Hooked On YouTrack11
TTITLE11=Shotgun Wedding
EXTD=
EXTT0=
EXTT1=
EXTT2=
EXTT3=
EXTT4=
EXTT5=
EXTT6=
EXTT7=
EXTT8=
EXTT9=
EXTT10=
EXTT11=
PLAYORDER=
